<?xml version="1.0" encoding="UTF-8"?>
<svg xmlns="http://www.w3.org/2000/svg" xmlns:xlink="http://www.w3.org/1999/xlink" width="351.81pt" height="273.47pt" viewBox="0 0 351.81 273.47" version="1.1">
<defs>
<clipPath id="clip1">
  <path d="M 0 258 L 13 258 L 13 273.46875 L 0 273.46875 Z M 0 258 "/>
</clipPath>
<clipPath id="clip2">
  <path d="M 14 258 L 24 258 L 24 273.46875 L 14 273.46875 Z M 14 258 "/>
</clipPath>
<clipPath id="clip3">
  <path d="M 25 258 L 38 258 L 38 273.46875 L 25 273.46875 Z M 25 258 "/>
</clipPath>
<clipPath id="clip4">
  <path d="M 40 258 L 49 258 L 49 273.46875 L 40 273.46875 Z M 40 258 "/>
</clipPath>
<clipPath id="clip5">
  <path d="M 51 258 L 62 258 L 62 273.46875 L 51 273.46875 Z M 51 258 "/>
</clipPath>
<clipPath id="clip6">
  <path d="M 62 258 L 75 258 L 75 273.46875 L 62 273.46875 Z M 62 258 "/>
</clipPath>
<clipPath id="clip7">
  <path d="M 76 258 L 86 258 L 86 273.46875 L 76 273.46875 Z M 76 258 "/>
</clipPath>
<clipPath id="clip8">
  <path d="M 90 258 L 104 258 L 104 273.46875 L 90 273.46875 Z M 90 258 "/>
</clipPath>
<clipPath id="clip9">
  <path d="M 104 258 L 116 258 L 116 273.46875 L 104 273.46875 Z M 104 258 "/>
</clipPath>
<clipPath id="clip10">
  <path d="M 117 258 L 129 258 L 129 273.46875 L 117 273.46875 Z M 117 258 "/>
</clipPath>
<clipPath id="clip11">
  <path d="M 130 258 L 142 258 L 142 273.46875 L 130 273.46875 Z M 130 258 "/>
</clipPath>
<clipPath id="clip12">
  <path d="M 143 258 L 158 258 L 158 273.46875 L 143 273.46875 Z M 143 258 "/>
</clipPath>
<clipPath id="clip13">
  <path d="M 159 258 L 170 258 L 170 273.46875 L 159 273.46875 Z M 159 258 "/>
</clipPath>
<clipPath id="clip14">
  <path d="M 171 258 L 175 258 L 175 273.46875 L 171 273.46875 Z M 171 258 "/>
</clipPath>
<clipPath id="clip15">
  <path d="M 175 258 L 187 258 L 187 273.46875 L 175 273.46875 Z M 175 258 "/>
</clipPath>
<clipPath id="clip16">
  <path d="M 187 258 L 200 258 L 200 273.46875 L 187 273.46875 Z M 187 258 "/>
</clipPath>
<clipPath id="clip17">
  <path d="M 204 258 L 218 258 L 218 273.46875 L 204 273.46875 Z M 204 258 "/>
</clipPath>
<clipPath id="clip18">
  <path d="M 220 258 L 229 258 L 229 273.46875 L 220 273.46875 Z M 220 258 "/>
</clipPath>
<clipPath id="clip19">
  <path d="M 234 258 L 246 258 L 246 273.46875 L 234 273.46875 Z M 234 258 "/>
</clipPath>
<clipPath id="clip20">
  <path d="M 246 258 L 260 258 L 260 273.46875 L 246 273.46875 Z M 246 258 "/>
</clipPath>
<clipPath id="clip21">
  <path d="M 261 258 L 273 258 L 273 273.46875 L 261 273.46875 Z M 261 258 "/>
</clipPath>
<clipPath id="clip22">
  <path d="M 272 258 L 286 258 L 286 273.46875 L 272 273.46875 Z M 272 258 "/>
</clipPath>
<clipPath id="clip23">
  <path d="M 284 258 L 296 258 L 296 273.46875 L 284 273.46875 Z M 284 258 "/>
</clipPath>
<clipPath id="clip24">
  <path d="M 300 258 L 314 258 L 314 273.46875 L 300 273.46875 Z M 300 258 "/>
</clipPath>
<clipPath id="clip25">
  <path d="M 317 258 L 328 258 L 328 273.46875 L 317 273.46875 Z M 317 258 "/>
</clipPath>
<clipPath id="clip26">
  <path d="M 326 258 L 340 258 L 340 273.46875 L 326 273.46875 Z M 326 258 "/>
</clipPath>
<clipPath id="clip27">
  <path d="M 340 258 L 351.808594 258 L 351.808594 273.46875 L 340 273.46875 Z M 340 258 "/>
</clipPath>
</defs>
<g id="surface1">
<path style=" stroke:none;fill-rule:nonzero;fill:rgb(1.599121%,34.098816%,30.198669%);fill-opacity:1;" d="M 37.6875 232.566406 C 35.621094 230.507813 33.382813 229.644531 30.933594 229.644531 C 28.824219 229.644531 26.84375 230.289063 24.90625 231.582031 L 26.542969 233.726563 C 27.875 232.820313 29.382813 232.308594 30.933594 232.308594 C 32.652344 232.308594 34.414063 232.996094 35.839844 234.410156 C 37.726563 236.300781 38.507813 238.660156 38.765625 241.28125 L 18.199219 241.28125 L 18.199219 224.796875 L 15.527344 224.796875 L 15.527344 243 C 15.527344 246.089844 12.773438 248.667969 9.761719 248.667969 C 6.792969 248.667969 4.078125 245.960938 4.078125 243 C 4.078125 240.511719 5.585938 239.132813 7.183594 237.976563 L 5.757813 235.445313 C 3.007813 237.03125 1.285156 239.867188 1.285156 243 C 1.285156 247.722656 5.203125 251.328125 9.761719 251.328125 C 14.066406 251.328125 17.292969 248.148438 18.199219 243.980469 L 41.472656 243.980469 C 41.472656 243 41.433594 241.835938 41.339844 240.679688 C 41.042969 237.632813 39.925781 234.796875 37.6875 232.566406 "/>
<path style=" stroke:none;fill-rule:nonzero;fill:rgb(1.599121%,34.098816%,30.198669%);fill-opacity:1;" d="M 31.277344 227.671875 C 32.136719 227.671875 32.78125 227.027344 32.78125 226.171875 C 32.78125 225.351563 32.136719 224.667969 31.277344 224.667969 C 30.457031 224.667969 29.769531 225.351563 29.769531 226.171875 C 29.769531 227.027344 30.457031 227.671875 31.277344 227.671875 "/>
<path style=" stroke:none;fill-rule:nonzero;fill:rgb(1.599121%,34.098816%,30.198669%);fill-opacity:1;" d="M 66.601563 241.28125 L 60.230469 241.28125 C 59.464844 233.554688 55.367188 230.203125 50.550781 230.203125 C 49.261719 230.203125 48.0625 230.421875 46.765625 230.847656 L 46.765625 233.421875 C 47.84375 233.125 48.960938 232.953125 50.035156 232.953125 C 53.828125 232.953125 57.3125 235.359375 57.484375 241.28125 L 45.777344 241.28125 L 45.777344 243.980469 L 69.316406 243.980469 L 69.316406 224.921875 L 66.601563 224.921875 "/>
<path style=" stroke:none;fill-rule:nonzero;fill:rgb(1.599121%,34.098816%,30.198669%);fill-opacity:1;" d="M 73.617188 243.980469 L 76.285156 243.980469 L 76.285156 224.96875 L 73.617188 224.96875 Z M 73.617188 243.980469 "/>
<path style=" stroke:none;fill-rule:nonzero;fill:rgb(1.599121%,34.098816%,30.198669%);fill-opacity:1;" d="M 91.390625 241.28125 C 90.65625 241.367188 89.839844 241.453125 89.0625 241.453125 C 86.316406 241.453125 83.554688 240.597656 83.554688 237.246094 C 83.554688 234.925781 85.28125 233.042969 87.597656 233.042969 C 90.742188 233.042969 91.863281 236.128906 91.863281 238.707031 C 91.863281 239.734375 91.691406 240.636719 91.390625 241.28125 M 87.515625 230.332031 C 82.785156 230.332031 80.589844 233.683594 80.589844 237.078125 C 80.589844 241.367188 83.6875 243.980469 88.851563 243.980469 C 89.410156 243.980469 90.050781 243.980469 90.703125 243.902344 C 89.886719 245.574219 88.589844 247.460938 86.824219 249.261719 L 89.105469 251.113281 C 91.390625 248.449219 92.808594 246.132813 93.667969 243.980469 C 94.3125 242.398438 94.785156 240.378906 94.785156 238.359375 C 94.785156 234.28125 92.933594 230.332031 87.515625 230.332031 "/>
<path style=" stroke:none;fill-rule:nonzero;fill:rgb(1.599121%,34.098816%,30.198669%);fill-opacity:1;" d="M 110.363281 228.53125 C 111.226563 228.53125 111.871094 227.886719 111.871094 227.027344 C 111.871094 226.214844 111.226563 225.527344 110.363281 225.527344 C 109.550781 225.527344 108.855469 226.214844 108.855469 227.027344 C 108.855469 227.886719 109.550781 228.53125 110.363281 228.53125 "/>
<path style=" stroke:none;fill-rule:nonzero;fill:rgb(1.599121%,34.098816%,30.198669%);fill-opacity:1;" d="M 112.128906 241.113281 C 109.765625 241.113281 108.128906 239.09375 108.128906 237.121094 C 108.128906 235.144531 109.804688 233.042969 112.085938 233.042969 C 114.277344 233.042969 116.257813 235.054688 116.257813 237.121094 C 116.257813 239.175781 114.410156 241.113281 112.128906 241.113281 M 112.21875 230.203125 L 112.085938 230.203125 C 108.472656 230.203125 105.285156 233.511719 105.285156 237.160156 C 105.285156 240.851563 108.34375 243.980469 112.085938 243.980469 C 115.832031 243.980469 118.972656 240.9375 118.972656 237.160156 L 118.972656 236.988281 C 118.972656 233.382813 115.917969 230.203125 112.21875 230.203125 "/>
<path style=" stroke:none;fill-rule:nonzero;fill:rgb(1.599121%,34.098816%,30.198669%);fill-opacity:1;" d="M 114.242188 228.53125 C 115.097656 228.53125 115.742188 227.886719 115.742188 227.027344 C 115.742188 226.214844 115.097656 225.527344 114.242188 225.527344 C 113.421875 225.527344 112.734375 226.214844 112.734375 227.027344 C 112.734375 227.886719 113.421875 228.53125 114.242188 228.53125 "/>
<path style=" stroke:none;fill-rule:nonzero;fill:rgb(1.599121%,34.098816%,30.198669%);fill-opacity:1;" d="M 139.84375 230.378906 L 135.835938 230.378906 L 140.914063 223.421875 L 138.640625 221.792969 L 132.824219 229.945313 L 132.824219 233.042969 L 139.84375 233.042969 C 142.078125 233.042969 143.628906 235.226563 143.628906 237.246094 C 143.628906 239.21875 141.945313 241.28125 139.84375 241.28125 L 125.941406 241.28125 L 125.941406 224.964844 L 123.273438 224.964844 L 123.273438 243.980469 L 139.84375 243.980469 C 140.660156 243.980469 141.5625 243.730469 142.382813 243.382813 C 144.875 242.265625 146.507813 239.652344 146.507813 236.988281 C 146.507813 233.257813 143.546875 230.378906 139.84375 230.378906 "/>
<path style=" stroke:none;fill-rule:nonzero;fill:rgb(1.599121%,34.098816%,30.198669%);fill-opacity:1;" d="M 152.320313 228.53125 C 153.179688 228.53125 153.828125 227.886719 153.828125 227.027344 C 153.828125 226.214844 153.179688 225.527344 152.320313 225.527344 C 151.5 225.527344 150.808594 226.214844 150.808594 227.027344 C 150.808594 227.886719 151.5 228.53125 152.320313 228.53125 "/>
<path style=" stroke:none;fill-rule:nonzero;fill:rgb(1.599121%,34.098816%,30.198669%);fill-opacity:1;" d="M 171.597656 241.28125 L 165.1875 241.28125 L 165.1875 224.839844 L 162.515625 224.839844 L 162.515625 241.28125 L 155.976563 241.28125 C 156.535156 238.578125 156.492188 234.542969 154.988281 230.589844 L 151.84375 230.589844 C 154.601563 236.6875 153.609375 243.339844 148.664063 249.351563 L 150.984375 251.113281 C 153.007813 249.011719 154.34375 246.648438 155.332031 243.980469 L 174.3125 243.980469 L 174.3125 224.921875 L 171.597656 224.921875 "/>
<path style=" stroke:none;fill-rule:nonzero;fill:rgb(1.599121%,34.098816%,30.198669%);fill-opacity:1;" d="M 194.40625 228.53125 C 195.265625 228.53125 195.90625 227.886719 195.90625 227.027344 C 195.90625 226.214844 195.265625 225.527344 194.40625 225.527344 C 193.585938 225.527344 192.898438 226.214844 192.898438 227.027344 C 192.898438 227.886719 193.585938 228.53125 194.40625 228.53125 "/>
<path style=" stroke:none;fill-rule:nonzero;fill:rgb(1.599121%,34.098816%,30.198669%);fill-opacity:1;" d="M 190.53125 228.53125 C 191.390625 228.53125 192.035156 227.886719 192.035156 227.027344 C 192.035156 226.214844 191.390625 225.527344 190.53125 225.527344 C 189.710938 225.527344 189.023438 226.214844 189.023438 227.027344 C 189.023438 227.886719 189.710938 228.53125 190.53125 228.53125 "/>
<path style=" stroke:none;fill-rule:nonzero;fill:rgb(1.599121%,34.098816%,30.198669%);fill-opacity:1;" d="M 211.828125 241.195313 C 209.464844 241.195313 207.871094 239.09375 207.871094 237.203125 C 207.871094 235.183594 209.507813 233.125 211.789063 233.125 C 214.070313 233.125 215.964844 235.097656 215.964844 237.203125 C 215.964844 239.222656 214.199219 241.195313 211.828125 241.195313 M 196.039063 241.28125 L 187.691406 241.28125 C 187.777344 236.433594 191.09375 232.820313 196.039063 233.167969 Z M 211.960938 230.464844 C 208.257813 230.464844 205.160156 233.769531 205.160156 237.242188 C 205.160156 238.617188 205.546875 239.90625 206.539063 241.28125 L 198.707031 241.28125 L 198.707031 231.152344 C 197.464844 230.589844 196.339844 230.335938 194.960938 230.335938 C 188.9375 230.335938 184.804688 236.171875 184.804688 241.964844 C 184.804688 242.609375 184.851563 243.300781 184.894531 243.980469 L 212.003906 243.980469 C 215.53125 243.980469 218.585938 240.894531 218.585938 237.242188 C 218.585938 233.59375 215.492188 230.464844 211.960938 230.464844 "/>
<path style=" stroke:none;fill-rule:nonzero;fill:rgb(1.599121%,34.098816%,30.198669%);fill-opacity:1;" d="M 251.03125 241.28125 L 240.234375 241.28125 C 237.90625 241.28125 235.5 239.777344 235.5 237.121094 C 235.5 235.054688 237.007813 233.042969 239.324219 233.042969 C 241.003906 233.042969 241.949219 233.683594 242.855469 234.625 L 244.402344 232.4375 C 242.902344 231.105469 241.222656 230.546875 239.496094 230.546875 C 235.84375 230.546875 232.445313 233.257813 232.445313 237.03125 C 232.445313 238.40625 232.871094 239.691406 233.773438 241.28125 L 225.554688 241.28125 L 225.554688 224.964844 L 222.886719 224.964844 L 222.886719 243.980469 L 253.742188 243.980469 L 253.742188 224.921875 L 251.03125 224.921875 "/>
<path style=" stroke:none;fill-rule:nonzero;fill:rgb(1.599121%,34.098816%,30.198669%);fill-opacity:1;" d="M 258.046875 243.980469 L 260.714844 243.980469 L 260.714844 224.96875 L 258.046875 224.96875 Z M 258.046875 243.980469 "/>
<path style=" stroke:none;fill-rule:nonzero;fill:rgb(1.599121%,34.098816%,30.198669%);fill-opacity:1;" d="M 280.808594 228.53125 C 281.671875 228.53125 282.3125 227.886719 282.3125 227.027344 C 282.3125 226.214844 281.671875 225.527344 280.808594 225.527344 C 279.988281 225.527344 279.300781 226.214844 279.300781 227.027344 C 279.300781 227.886719 279.988281 228.53125 280.808594 228.53125 "/>
<path style=" stroke:none;fill-rule:nonzero;fill:rgb(1.599121%,34.098816%,30.198669%);fill-opacity:1;" d="M 276.933594 228.53125 C 277.796875 228.53125 278.441406 227.886719 278.441406 227.027344 C 278.441406 226.214844 277.796875 225.527344 276.933594 225.527344 C 276.117188 225.527344 275.429688 226.214844 275.429688 227.027344 C 275.429688 227.886719 276.117188 228.53125 276.933594 228.53125 "/>
<path style=" stroke:none;fill-rule:nonzero;fill:rgb(1.599121%,34.098816%,30.198669%);fill-opacity:1;" d="M 297.378906 226.816406 L 295.140625 226.816406 C 293.933594 226.683594 292.730469 226.167969 292.683594 224.796875 C 292.8125 222.347656 295.226563 222.691406 296.300781 223.894531 L 297.421875 222.347656 C 296.601563 221.53125 295.738281 221.105469 294.539063 221.105469 C 291.480469 221.105469 289.761719 224.410156 291.742188 226.816406 L 288.984375 226.816406 L 288.984375 228.53125 L 297.378906 228.53125 "/>
<path style=" stroke:none;fill-rule:nonzero;fill:rgb(1.599121%,34.098816%,30.198669%);fill-opacity:1;" d="M 302.410156 246.132813 C 301.59375 246.132813 300.902344 246.820313 300.902344 247.632813 C 300.902344 248.496094 301.59375 249.136719 302.410156 249.136719 C 303.269531 249.136719 303.917969 248.496094 303.917969 247.632813 C 303.917969 246.820313 303.269531 246.132813 302.410156 246.132813 "/>
<path style=" stroke:none;fill-rule:nonzero;fill:rgb(1.599121%,34.098816%,30.198669%);fill-opacity:1;" d="M 306.28125 246.132813 C 305.460938 246.132813 304.773438 246.820313 304.773438 247.632813 C 304.773438 248.496094 305.460938 249.136719 306.28125 249.136719 C 307.140625 249.136719 307.789063 248.496094 307.789063 247.632813 C 307.789063 246.820313 307.140625 246.132813 306.28125 246.132813 "/>
<path style=" stroke:none;fill-rule:nonzero;fill:rgb(1.599121%,34.098816%,30.198669%);fill-opacity:1;" d="M 324.527344 241.28125 L 324.527344 232.953125 C 328.316406 233.59375 331.371094 237.375 331.027344 241.28125 Z M 321.859375 241.28125 L 315.445313 241.28125 C 315.058594 237.375 318.160156 233.769531 321.859375 233.042969 Z M 282.445313 241.28125 L 274.09375 241.28125 C 274.179688 236.433594 277.496094 232.820313 282.445313 233.167969 Z M 340.359375 241.28125 L 333.992188 241.28125 C 333.605469 235.746094 330.121094 230.679688 324.527344 230.289063 L 324.527344 226.296875 L 321.859375 226.296875 L 321.859375 230.289063 C 316.347656 230.894531 312.90625 235.871094 312.519531 241.28125 L 305.636719 241.28125 L 305.636719 230.589844 L 302.972656 230.589844 L 302.972656 241.28125 L 295.140625 241.28125 L 295.140625 230.589844 L 292.472656 230.589844 L 292.472656 241.28125 L 285.109375 241.28125 L 285.109375 231.152344 C 283.863281 230.589844 282.746094 230.332031 281.363281 230.332031 C 275.339844 230.332031 271.21875 236.171875 271.21875 241.964844 C 271.21875 242.613281 271.253906 243.296875 271.296875 243.980469 L 343.074219 243.980469 L 343.074219 224.921875 L 340.359375 224.921875 "/>
<path style=" stroke:none;fill-rule:nonzero;fill:rgb(1.599121%,34.098816%,30.198669%);fill-opacity:1;" d="M 347.375 243.980469 L 350.042969 243.980469 L 350.042969 224.96875 L 347.375 224.96875 Z M 347.375 243.980469 "/>
<path style=" stroke:none;fill-rule:nonzero;fill:rgb(1.599121%,34.098816%,30.198669%);fill-opacity:1;" d="M 262.527344 93.488281 C 259.207031 77.894531 251.980469 64.71875 241.054688 54.324219 C 236.296875 49.796875 230.835938 45.824219 224.828125 42.511719 C 220.304688 40.011719 215.46875 37.890625 210.421875 36.183594 C 214.960938 35.242188 220.984375 35.261719 227.257813 36.285156 C 235.746094 37.671875 243.605469 40.625 249.382813 44.597656 L 250.910156 45.652344 C 251.367188 45.964844 251.941406 45.46875 251.695313 44.976563 L 250.867188 43.316406 C 249.464844 40.488281 247.277344 37.535156 244.539063 34.765625 C 241.390625 31.578125 237.65625 28.753906 233.4375 26.378906 C 228.597656 23.648438 223.238281 21.585938 217.507813 20.242188 C 211.742188 18.890625 205.585938 18.273438 199.183594 18.402344 C 201.710938 15.917969 204.382813 14.390625 208.324219 13.082031 L 209.402344 12.726563 C 209.851563 12.578125 209.898438 11.964844 209.480469 11.746094 L 208.472656 11.222656 C 204.476563 9.148438 199.171875 8.457031 193.917969 9.324219 C 189.527344 10.046875 185.695313 11.765625 183.097656 14.128906 C 182.289063 10.882813 180.253906 4.273438 176.351563 0.476563 L 176.015625 0.148438 C 175.808594 -0.0546875 175.476563 -0.0546875 175.269531 0.148438 L 174.933594 0.476563 C 171.035156 4.273438 169 10.882813 168.191406 14.128906 C 165.589844 11.765625 161.761719 10.046875 157.371094 9.324219 C 152.117188 8.457031 146.8125 9.148438 142.816406 11.222656 L 141.808594 11.746094 C 141.390625 11.964844 141.4375 12.578125 141.886719 12.726563 L 142.964844 13.082031 C 146.902344 14.390625 149.578125 15.917969 152.105469 18.402344 C 145.699219 18.273438 139.546875 18.890625 133.777344 20.242188 C 128.050781 21.585938 122.691406 23.648438 117.847656 26.378906 C 113.632813 28.753906 109.898438 31.578125 106.746094 34.765625 C 104.011719 37.535156 101.824219 40.488281 100.417969 43.316406 L 99.59375 44.976563 C 99.347656 45.46875 99.921875 45.964844 100.375 45.652344 L 101.90625 44.597656 C 107.683594 40.625 115.539063 37.671875 124.027344 36.285156 C 130.300781 35.261719 136.324219 35.242188 140.867188 36.183594 C 135.816406 37.890625 130.984375 40.011719 126.457031 42.511719 C 120.449219 45.824219 114.992188 49.796875 110.234375 54.324219 C 99.304688 64.71875 92.082031 77.894531 88.761719 93.488281 L 88.15625 96.328125 C 88.027344 96.921875 88.828125 97.230469 89.136719 96.714844 L 90.625 94.21875 C 90.671875 94.136719 95.539063 86.050781 104.65625 77.113281 C 110 71.871094 115.738281 67.371094 121.710938 63.726563 C 127.929688 59.929688 134.421875 57.066406 141.058594 55.183594 C 136.941406 59.1875 132.957031 64.277344 129.390625 70.109375 C 124.878906 77.480469 121.339844 85.542969 119.15625 93.429688 L 118.34375 96.359375 C 118.179688 96.945313 118.96875 97.300781 119.304688 96.792969 L 120.980469 94.257813 C 121.023438 94.195313 125.113281 88.039063 131.417969 81.523438 C 135.105469 77.714844 138.816406 74.527344 142.445313 72.054688 C 145.875 69.722656 149.234375 68.023438 152.472656 66.988281 C 150.277344 69.933594 148.6875 73.199219 147.730469 76.738281 C 146.363281 81.792969 146.25 87.558594 147.390625 93.878906 L 147.707031 95.644531 C 147.804688 96.179688 148.550781 96.242188 148.738281 95.730469 L 149.34375 94.042969 C 149.367188 93.980469 151.660156 87.683594 156.089844 81.488281 C 158.664063 77.886719 161.449219 75.023438 164.363281 72.976563 C 167.945313 70.460938 171.742188 69.1875 175.644531 69.1875 C 179.546875 69.1875 183.34375 70.460938 186.925781 72.976563 C 189.839844 75.023438 192.621094 77.886719 195.195313 81.488281 C 199.628906 87.683594 201.921875 93.980469 201.941406 94.042969 L 202.550781 95.730469 C 202.734375 96.246094 203.484375 96.183594 203.578125 95.644531 L 203.898438 93.878906 C 205.039063 87.558594 204.921875 81.792969 203.558594 76.738281 C 202.601563 73.199219 201.011719 69.933594 198.816406 66.988281 C 202.054688 68.023438 205.414063 69.722656 208.839844 72.054688 C 212.472656 74.527344 216.183594 77.714844 219.867188 81.523438 C 226.171875 88.039063 230.265625 94.195313 230.304688 94.257813 L 231.984375 96.792969 C 232.316406 97.300781 233.105469 96.945313 232.945313 96.359375 L 232.132813 93.429688 C 229.945313 85.542969 226.40625 77.480469 221.898438 70.109375 C 218.328125 64.277344 214.34375 59.1875 210.226563 55.183594 C 216.863281 57.066406 223.359375 59.929688 229.578125 63.726563 C 235.550781 67.371094 241.285156 71.871094 246.628906 77.113281 C 255.738281 86.042969 260.605469 94.121094 260.660156 94.21875 L 262.152344 96.71875 C 262.460938 97.238281 263.261719 96.925781 263.132813 96.335938 "/>
<g clip-path="url(#clip1)" clip-rule="nonzero">
<path style=" stroke:none;fill-rule:nonzero;fill:rgb(1.599121%,34.098816%,30.198669%);fill-opacity:1;" d="M 12.222656 272.578125 C 11.308594 272.917969 9.523438 273.386719 7.628906 273.386719 C 5.207031 273.386719 3.359375 272.773438 2 271.476563 C 0.722656 270.269531 0 268.382813 0 266.21875 C 0.0195313 261.679688 3.230469 258.796875 7.96875 258.796875 C 9.734375 258.796875 11.117188 259.15625 11.777344 259.472656 L 11.203125 261.574219 C 10.414063 261.214844 9.457031 260.960938 7.949219 260.960938 C 4.886719 260.960938 2.742188 262.761719 2.742188 266.089844 C 2.742188 269.335938 4.738281 271.265625 7.714844 271.265625 C 8.671875 271.265625 9.351563 271.136719 9.691406 270.988281 L 9.691406 267.40625 L 7.164063 267.40625 L 7.164063 265.347656 L 12.222656 265.347656 "/>
</g>
<g clip-path="url(#clip2)" clip-rule="nonzero">
<path style=" stroke:none;fill-rule:nonzero;fill:rgb(1.599121%,34.098816%,30.198669%);fill-opacity:1;" d="M 22.925781 266.898438 L 17.527344 266.898438 L 17.527344 271.097656 L 23.5625 271.097656 L 23.5625 273.238281 L 14.914063 273.238281 L 14.914063 258.945313 L 23.246094 258.945313 L 23.246094 261.085938 L 17.527344 261.085938 L 17.527344 264.777344 L 22.925781 264.777344 "/>
</g>
<g clip-path="url(#clip3)" clip-rule="nonzero">
<path style=" stroke:none;fill-rule:nonzero;fill:rgb(1.599121%,34.098816%,30.198669%);fill-opacity:1;" d="M 25.847656 273.238281 L 25.847656 258.945313 L 28.847656 258.945313 L 32.542969 265.074219 C 33.480469 266.664063 34.332031 268.320313 34.988281 269.863281 L 35.03125 269.863281 C 34.839844 267.957031 34.796875 266.113281 34.796875 263.929688 L 34.796875 258.945313 L 37.21875 258.945313 L 37.21875 273.238281 L 34.5 273.238281 L 30.757813 266.9375 C 29.84375 265.371094 28.910156 263.632813 28.210938 262.019531 L 28.125 262.039063 C 28.230469 263.886719 28.273438 265.773438 28.273438 268.125 L 28.273438 273.238281 "/>
</g>
<g clip-path="url(#clip4)" clip-rule="nonzero">
<path style=" stroke:none;fill-rule:nonzero;fill:rgb(1.599121%,34.098816%,30.198669%);fill-opacity:1;" d="M 48.265625 266.898438 L 42.863281 266.898438 L 42.863281 271.097656 L 48.902344 271.097656 L 48.902344 273.238281 L 40.25 273.238281 L 40.25 258.945313 L 48.582031 258.945313 L 48.582031 261.085938 L 42.863281 261.085938 L 42.863281 264.777344 L 48.265625 264.777344 "/>
</g>
<g clip-path="url(#clip5)" clip-rule="nonzero">
<path style=" stroke:none;fill-rule:nonzero;fill:rgb(1.599121%,34.098816%,30.198669%);fill-opacity:1;" d="M 53.800781 265.457031 L 55.351563 265.457031 C 57.117188 265.457031 58.203125 264.523438 58.203125 263.101563 C 58.203125 261.554688 57.117188 260.8125 55.414063 260.8125 C 54.585938 260.8125 54.054688 260.875 53.800781 260.9375 Z M 51.207031 259.15625 C 52.207031 258.964844 53.652344 258.839844 55.160156 258.839844 C 57.222656 258.839844 58.601563 259.179688 59.582031 259.984375 C 60.367188 260.640625 60.8125 261.636719 60.8125 262.867188 C 60.8125 264.714844 59.5625 265.964844 58.203125 266.429688 L 58.203125 266.496094 C 59.242188 266.875 59.859375 267.871094 60.199219 269.253906 C 60.667969 271.035156 61.046875 272.683594 61.324219 273.238281 L 58.648438 273.238281 C 58.433594 272.8125 58.074219 271.648438 57.691406 269.863281 C 57.265625 268 56.605469 267.40625 55.121094 267.363281 L 53.800781 267.363281 L 53.800781 273.238281 L 51.207031 273.238281 "/>
</g>
<g clip-path="url(#clip6)" clip-rule="nonzero">
<path style=" stroke:none;fill-rule:nonzero;fill:rgb(1.599121%,34.098816%,30.198669%);fill-opacity:1;" d="M 70.433594 267.214844 L 69.308594 263.695313 C 69.03125 262.824219 68.796875 261.851563 68.585938 261.023438 L 68.542969 261.023438 C 68.332031 261.851563 68.09375 262.847656 67.863281 263.695313 L 66.757813 267.214844 Z M 66.332031 269.1875 L 65.097656 273.238281 L 62.402344 273.238281 L 66.992188 258.945313 L 70.328125 258.945313 L 74.984375 273.238281 L 72.15625 273.238281 L 70.859375 269.1875 "/>
</g>
<g clip-path="url(#clip7)" clip-rule="nonzero">
<path style=" stroke:none;fill-rule:nonzero;fill:rgb(1.599121%,34.098816%,30.198669%);fill-opacity:1;" d="M 76.992188 258.945313 L 79.609375 258.945313 L 79.609375 271.054688 L 85.496094 271.054688 L 85.496094 273.238281 L 76.992188 273.238281 "/>
</g>
<g clip-path="url(#clip8)" clip-rule="nonzero">
<path style=" stroke:none;fill-rule:nonzero;fill:rgb(1.599121%,34.098816%,30.198669%);fill-opacity:1;" d="M 98.859375 267.214844 L 97.730469 263.695313 C 97.457031 262.824219 97.222656 261.851563 97.007813 261.023438 L 96.96875 261.023438 C 96.753906 261.851563 96.519531 262.847656 96.285156 263.695313 L 95.179688 267.214844 Z M 94.757813 269.1875 L 93.523438 273.238281 L 90.824219 273.238281 L 95.414063 258.945313 L 98.753906 258.945313 L 103.40625 273.238281 L 100.578125 273.238281 L 99.28125 269.1875 "/>
</g>
<g clip-path="url(#clip9)" clip-rule="nonzero">
<path style=" stroke:none;fill-rule:nonzero;fill:rgb(1.599121%,34.098816%,30.198669%);fill-opacity:1;" d="M 107.328125 258.945313 L 107.328125 267.277344 C 107.328125 270.078125 108.496094 271.371094 110.261719 271.371094 C 112.152344 271.371094 113.277344 270.078125 113.277344 267.277344 L 113.277344 258.945313 L 115.894531 258.945313 L 115.894531 267.109375 C 115.894531 271.519531 113.621094 273.46875 110.175781 273.46875 C 106.859375 273.46875 104.710938 271.625 104.710938 267.128906 L 104.710938 258.945313 "/>
</g>
<g clip-path="url(#clip10)" clip-rule="nonzero">
<path style=" stroke:none;fill-rule:nonzero;fill:rgb(1.599121%,34.098816%,30.198669%);fill-opacity:1;" d="M 121.644531 261.128906 L 117.566406 261.128906 L 117.566406 258.945313 L 128.386719 258.945313 L 128.386719 261.128906 L 124.261719 261.128906 L 124.261719 273.238281 L 121.644531 273.238281 "/>
</g>
<g clip-path="url(#clip11)" clip-rule="nonzero">
<path style=" stroke:none;fill-rule:nonzero;fill:rgb(1.599121%,34.098816%,30.198669%);fill-opacity:1;" d="M 132.6875 258.945313 L 132.6875 264.671875 L 138.746094 264.671875 L 138.746094 258.945313 L 141.363281 258.945313 L 141.363281 273.238281 L 138.746094 273.238281 L 138.746094 266.9375 L 132.6875 266.9375 L 132.6875 273.238281 L 130.074219 273.238281 L 130.074219 258.945313 "/>
</g>
<g clip-path="url(#clip12)" clip-rule="nonzero">
<path style=" stroke:none;fill-rule:nonzero;fill:rgb(1.599121%,34.098816%,30.198669%);fill-opacity:1;" d="M 146.390625 266.132813 C 146.390625 269.058594 147.859375 271.371094 150.367188 271.371094 C 152.898438 271.371094 154.320313 269.019531 154.320313 266.027344 C 154.320313 263.332031 152.980469 260.789063 150.367188 260.789063 C 147.773438 260.789063 146.390625 263.183594 146.390625 266.132813 M 157.085938 265.941406 C 157.085938 270.734375 154.171875 273.46875 150.238281 273.46875 C 146.179688 273.46875 143.628906 270.375 143.628906 266.195313 C 143.628906 261.785156 146.414063 258.691406 150.453125 258.691406 C 154.617188 258.691406 157.085938 261.851563 157.085938 265.941406 "/>
</g>
<g clip-path="url(#clip13)" clip-rule="nonzero">
<path style=" stroke:none;fill-rule:nonzero;fill:rgb(1.599121%,34.098816%,30.198669%);fill-opacity:1;" d="M 161.941406 265.457031 L 163.492188 265.457031 C 165.257813 265.457031 166.34375 264.523438 166.34375 263.101563 C 166.34375 261.554688 165.257813 260.8125 163.558594 260.8125 C 162.726563 260.8125 162.195313 260.875 161.941406 260.9375 Z M 159.351563 259.15625 C 160.347656 258.964844 161.796875 258.839844 163.300781 258.839844 C 165.363281 258.839844 166.746094 259.179688 167.726563 259.984375 C 168.511719 260.640625 168.953125 261.636719 168.953125 262.867188 C 168.953125 264.714844 167.703125 265.964844 166.34375 266.429688 L 166.34375 266.496094 C 167.382813 266.875 168 267.871094 168.339844 269.253906 C 168.808594 271.035156 169.191406 272.683594 169.464844 273.238281 L 166.789063 273.238281 C 166.578125 272.8125 166.214844 271.648438 165.832031 269.863281 C 165.40625 268 164.746094 267.40625 163.261719 267.363281 L 161.941406 267.363281 L 161.941406 273.238281 L 159.351563 273.238281 "/>
</g>
<g clip-path="url(#clip14)" clip-rule="nonzero">
<path style=" stroke:none;fill-rule:nonzero;fill:rgb(1.599121%,34.098816%,30.198669%);fill-opacity:1;" d="M 171.453125 273.238281 L 174.070313 273.238281 L 174.070313 258.945313 L 171.453125 258.945313 Z M 171.453125 273.238281 "/>
</g>
<g clip-path="url(#clip15)" clip-rule="nonzero">
<path style=" stroke:none;fill-rule:nonzero;fill:rgb(1.599121%,34.098816%,30.198669%);fill-opacity:1;" d="M 179.8125 261.128906 L 175.730469 261.128906 L 175.730469 258.945313 L 186.550781 258.945313 L 186.550781 261.128906 L 182.429688 261.128906 L 182.429688 273.238281 L 179.8125 273.238281 "/>
</g>
<g clip-path="url(#clip16)" clip-rule="nonzero">
<path style=" stroke:none;fill-rule:nonzero;fill:rgb(1.599121%,34.098816%,30.198669%);fill-opacity:1;" d="M 191.835938 273.238281 L 191.835938 267.277344 L 187.304688 258.945313 L 190.304688 258.945313 L 192.003906 262.613281 C 192.492188 263.671875 192.851563 264.480469 193.257813 265.453125 L 193.300781 265.453125 C 193.640625 264.542969 194.042969 263.652344 194.53125 262.613281 L 196.257813 258.945313 L 199.210938 258.945313 L 194.445313 267.214844 L 194.445313 273.238281 "/>
</g>
<g clip-path="url(#clip17)" clip-rule="nonzero">
<path style=" stroke:none;fill-rule:nonzero;fill:rgb(1.599121%,34.098816%,30.198669%);fill-opacity:1;" d="M 207.238281 266.132813 C 207.238281 269.058594 208.703125 271.371094 211.214844 271.371094 C 213.742188 271.371094 215.167969 269.019531 215.167969 266.027344 C 215.167969 263.332031 213.828125 260.789063 211.214844 260.789063 C 208.617188 260.789063 207.238281 263.183594 207.238281 266.132813 M 217.929688 265.941406 C 217.929688 270.734375 215.015625 273.46875 211.085938 273.46875 C 207.023438 273.46875 204.476563 270.375 204.476563 266.195313 C 204.476563 261.785156 207.257813 258.691406 211.296875 258.691406 C 215.464844 258.691406 217.929688 261.851563 217.929688 265.941406 "/>
</g>
<g clip-path="url(#clip18)" clip-rule="nonzero">
<path style=" stroke:none;fill-rule:nonzero;fill:rgb(1.599121%,34.098816%,30.198669%);fill-opacity:1;" d="M 220.195313 258.945313 L 228.484375 258.945313 L 228.484375 261.085938 L 222.8125 261.085938 L 222.8125 265.03125 L 228.082031 265.03125 L 228.082031 267.148438 L 222.8125 267.148438 L 222.8125 273.238281 L 220.195313 273.238281 "/>
</g>
<g clip-path="url(#clip19)" clip-rule="nonzero">
<path style=" stroke:none;fill-rule:nonzero;fill:rgb(1.599121%,34.098816%,30.198669%);fill-opacity:1;" d="M 234.46875 271.796875 L 241.78125 261.171875 L 241.78125 261.109375 L 235.105469 261.109375 L 235.105469 258.945313 L 245.183594 258.945313 L 245.183594 260.472656 L 237.953125 271.011719 L 237.953125 271.074219 L 245.289063 271.074219 L 245.289063 273.238281 L 234.46875 273.238281 "/>
</g>
<g clip-path="url(#clip20)" clip-rule="nonzero">
<path style=" stroke:none;fill-rule:nonzero;fill:rgb(1.599121%,34.098816%,30.198669%);fill-opacity:1;" d="M 254.550781 267.214844 L 253.421875 263.695313 C 253.144531 262.824219 252.910156 261.851563 252.699219 261.023438 L 252.65625 261.023438 C 252.445313 261.851563 252.207031 262.847656 251.976563 263.695313 L 250.871094 267.214844 Z M 250.445313 269.1875 L 249.214844 273.238281 L 246.511719 273.238281 L 251.105469 258.945313 L 254.441406 258.945313 L 259.097656 273.238281 L 256.269531 273.238281 L 254.972656 269.1875 "/>
</g>
<g clip-path="url(#clip21)" clip-rule="nonzero">
<path style=" stroke:none;fill-rule:nonzero;fill:rgb(1.599121%,34.098816%,30.198669%);fill-opacity:1;" d="M 261.105469 258.945313 L 263.699219 258.945313 L 263.699219 265.519531 L 263.765625 265.519531 C 264.105469 264.96875 264.464844 264.457031 264.808594 263.96875 L 268.566406 258.945313 L 271.777344 258.945313 L 266.847656 265.03125 L 272.09375 273.238281 L 269.035156 273.238281 L 264.996094 266.683594 L 263.699219 268.210938 L 263.699219 273.238281 L 261.105469 273.238281 "/>
</g>
<g clip-path="url(#clip22)" clip-rule="nonzero">
<path style=" stroke:none;fill-rule:nonzero;fill:rgb(1.599121%,34.098816%,30.198669%);fill-opacity:1;" d="M 280.714844 267.214844 L 279.589844 263.695313 C 279.3125 262.824219 279.078125 261.851563 278.863281 261.023438 L 278.824219 261.023438 C 278.613281 261.851563 278.375 262.847656 278.140625 263.695313 L 277.039063 267.214844 Z M 276.613281 269.1875 L 275.378906 273.238281 L 272.679688 273.238281 L 277.269531 258.945313 L 280.609375 258.945313 L 285.261719 273.238281 L 282.4375 273.238281 L 281.140625 269.1875 "/>
</g>
<g clip-path="url(#clip23)" clip-rule="nonzero">
<path style=" stroke:none;fill-rule:nonzero;fill:rgb(1.599121%,34.098816%,30.198669%);fill-opacity:1;" d="M 288.292969 261.128906 L 284.214844 261.128906 L 284.214844 258.945313 L 295.03125 258.945313 L 295.03125 261.128906 L 290.910156 261.128906 L 290.910156 273.238281 L 288.292969 273.238281 "/>
</g>
<g clip-path="url(#clip24)" clip-rule="nonzero">
<path style=" stroke:none;fill-rule:nonzero;fill:rgb(1.599121%,34.098816%,30.198669%);fill-opacity:1;" d="M 304.25 262.105469 C 304.25 262.972656 304.652344 263.675781 305.289063 264.394531 C 306.503906 263.632813 307.203125 262.972656 307.203125 261.976563 C 307.203125 261.214844 306.757813 260.363281 305.757813 260.363281 C 304.78125 260.363281 304.25 261.191406 304.25 262.105469 M 307.796875 270.566406 C 306.925781 269.675781 305.566406 268.148438 304.207031 266.601563 C 303.546875 267.066406 302.761719 267.808594 302.761719 269.015625 C 302.761719 270.417969 303.800781 271.539063 305.398438 271.539063 C 306.414063 271.539063 307.246094 271.117188 307.796875 270.566406 M 310.15625 273.238281 C 309.800781 272.875 309.480469 272.515625 309.03125 272.050781 C 307.96875 272.964844 306.628906 273.46875 304.992188 273.46875 C 301.847656 273.46875 300.277344 271.5 300.277344 269.421875 C 300.277344 267.511719 301.398438 266.152344 303.039063 265.285156 L 303.039063 265.222656 C 302.355469 264.414063 301.890625 263.375 301.890625 262.359375 C 301.890625 260.578125 303.25 258.691406 305.886719 258.691406 C 307.902344 258.691406 309.457031 259.941406 309.457031 261.894531 C 309.457031 263.375 308.585938 264.585938 306.503906 265.648438 L 306.480469 265.710938 C 307.476563 266.855469 308.585938 268.125 309.371094 268.976563 C 309.988281 268.039063 310.4375 266.683594 310.667969 265.179688 L 313.007813 265.179688 C 312.625 267.386719 311.964844 269.207031 310.773438 270.542969 C 311.585938 271.433594 312.347656 272.304688 313.21875 273.238281 "/>
</g>
<g clip-path="url(#clip25)" clip-rule="nonzero">
<path style=" stroke:none;fill-rule:nonzero;fill:rgb(1.599121%,34.098816%,30.198669%);fill-opacity:1;" d="M 321.140625 261.128906 L 317.058594 261.128906 L 317.058594 258.945313 L 327.882813 258.945313 L 327.882813 261.128906 L 323.753906 261.128906 L 323.753906 273.238281 L 321.140625 273.238281 "/>
</g>
<g clip-path="url(#clip26)" clip-rule="nonzero">
<path style=" stroke:none;fill-rule:nonzero;fill:rgb(1.599121%,34.098816%,30.198669%);fill-opacity:1;" d="M 334.988281 267.214844 L 333.859375 263.695313 C 333.585938 262.824219 333.351563 261.851563 333.136719 261.023438 L 333.097656 261.023438 C 332.886719 261.851563 332.648438 262.847656 332.414063 263.695313 L 331.3125 267.214844 Z M 330.886719 269.1875 L 329.652344 273.238281 L 326.953125 273.238281 L 331.546875 258.945313 L 334.882813 258.945313 L 339.535156 273.238281 L 336.710938 273.238281 L 335.414063 269.1875 "/>
</g>
<g clip-path="url(#clip27)" clip-rule="nonzero">
<path style=" stroke:none;fill-rule:nonzero;fill:rgb(1.599121%,34.098816%,30.198669%);fill-opacity:1;" d="M 348.773438 273.238281 L 347.246094 270.398438 C 346.628906 269.292969 346.222656 268.53125 345.800781 267.703125 L 345.753906 267.703125 C 345.414063 268.53125 345.035156 269.292969 344.460938 270.398438 L 343.03125 273.238281 L 340.039063 273.238281 L 344.285156 266.003906 L 340.1875 258.945313 L 343.203125 258.945313 L 344.757813 261.894531 C 345.222656 262.785156 345.566406 263.484375 345.925781 264.289063 L 345.992188 264.289063 C 346.371094 263.398438 346.667969 262.761719 347.113281 261.894531 L 348.644531 258.945313 L 351.644531 258.945313 L 347.457031 265.921875 L 351.8125 273.238281 "/>
</g>
<path style=" stroke:none;fill-rule:nonzero;fill:rgb(76.098633%,58.799744%,17.999268%);fill-opacity:1;" d="M 253.949219 103.984375 L 253.949219 111.125 L 261.105469 111.125 C 262.195313 111.125 263.078125 110.242188 263.078125 109.15625 L 263.078125 102.015625 L 255.921875 102.015625 C 254.832031 102.015625 253.949219 102.894531 253.949219 103.984375 "/>
<path style=" stroke:none;fill-rule:nonzero;fill:rgb(76.098633%,58.799744%,17.999268%);fill-opacity:1;" d="M 254.003906 136.089844 L 244.328125 136.089844 C 243.148438 136.089844 242.195313 137.046875 242.195313 138.222656 L 242.195313 145.085938 L 260.945313 145.085938 C 262.125 145.085938 263.078125 144.132813 263.078125 142.957031 L 263.078125 118.183594 L 256.140625 118.183594 C 254.960938 118.183594 254.003906 119.136719 254.003906 120.3125 "/>
<path style=" stroke:none;fill-rule:nonzero;fill:rgb(76.098633%,58.799744%,17.999268%);fill-opacity:1;" d="M 108.511719 136.089844 L 97.75 136.089844 L 97.75 127.179688 L 108.511719 127.179688 Z M 117.527344 118.183594 L 90.867188 118.183594 C 89.6875 118.183594 88.730469 119.136719 88.730469 120.3125 L 88.730469 145.085938 L 115.394531 145.085938 C 116.574219 145.085938 117.527344 144.132813 117.527344 142.957031 "/>
<path style=" stroke:none;fill-rule:nonzero;fill:rgb(76.098633%,58.799744%,17.999268%);fill-opacity:1;" d="M 242.898438 163.195313 L 254.003906 163.195313 L 254.003906 172.238281 L 242.898438 172.238281 Z M 233.878906 156.726563 L 233.878906 181.234375 L 254.003906 181.234375 L 254.003906 188.710938 L 90.867188 188.710938 C 89.6875 188.710938 88.730469 189.664063 88.730469 190.839844 L 88.730469 197.703125 L 260.945313 197.703125 C 262.125 197.703125 263.078125 196.75 263.078125 195.574219 L 263.078125 154.199219 L 233.878906 154.199219 "/>
<path style=" stroke:none;fill-rule:nonzero;fill:rgb(76.098633%,58.799744%,17.999268%);fill-opacity:1;" d="M 190.378906 154.199219 L 158.808594 154.199219 C 157.628906 154.199219 156.671875 155.152344 156.671875 156.328125 L 156.671875 163.195313 L 181.363281 163.195313 L 181.363281 172.238281 L 133.964844 172.238281 L 133.964844 102.015625 L 126.550781 102.015625 C 125.667969 102.015625 124.949219 102.730469 124.949219 103.609375 L 124.949219 172.238281 L 97.75 172.238281 L 97.75 163.195313 L 115.394531 163.195313 C 116.574219 163.195313 117.527344 162.242188 117.527344 161.066406 L 117.527344 154.199219 L 90.328125 154.199219 C 89.445313 154.199219 88.730469 154.910156 88.730469 155.789063 L 88.730469 181.238281 L 188.246094 181.238281 C 189.425781 181.238281 190.378906 180.28125 190.378906 179.105469 "/>
<path style=" stroke:none;fill-rule:nonzero;fill:rgb(76.098633%,58.799744%,17.999268%);fill-opacity:1;" d="M 197.847656 172.234375 L 197.847656 181.238281 L 224.132813 181.238281 C 225.3125 181.238281 226.265625 180.28125 226.265625 179.105469 L 226.265625 154.199219 L 200.261719 154.199219 C 199.082031 154.199219 198.125 155.152344 198.125 156.328125 L 198.125 163.195313 L 217.25 163.195313 L 217.25 172.234375 "/>
<path style=" stroke:none;fill-rule:nonzero;fill:rgb(76.098633%,58.799744%,17.999268%);fill-opacity:1;" d="M 150.5625 154.199219 L 142.800781 154.199219 C 142.046875 154.199219 141.433594 154.8125 141.433594 155.566406 L 141.433594 163.195313 L 149.195313 163.195313 C 149.949219 163.195313 150.5625 162.585938 150.5625 161.832031 "/>
<path style=" stroke:none;fill-rule:nonzero;fill:rgb(76.098633%,58.799744%,17.999268%);fill-opacity:1;" d="M 233.878906 118.183594 L 165.6875 118.183594 L 165.6875 111.011719 L 231.945313 111.011719 C 233.125 111.011719 234.082031 110.058594 234.082031 108.882813 L 234.082031 102.015625 L 158.808594 102.015625 C 157.628906 102.015625 156.671875 102.96875 156.671875 104.144531 L 156.671875 127.179688 L 224.863281 127.179688 L 224.863281 136.089844 L 150.449219 136.089844 L 150.449219 102.015625 L 143.566406 102.015625 C 142.386719 102.015625 141.433594 102.96875 141.433594 104.144531 L 141.433594 145.085938 L 231.742188 145.085938 C 232.921875 145.085938 233.878906 144.132813 233.878906 142.957031 "/>
<path style=" stroke:none;fill-rule:nonzero;fill:rgb(76.098633%,58.799744%,17.999268%);fill-opacity:1;" d="M 117.527344 102.015625 L 90.867188 102.015625 C 89.6875 102.015625 88.730469 102.96875 88.730469 104.144531 L 88.730469 111.125 L 115.394531 111.125 C 116.574219 111.125 117.527344 110.171875 117.527344 108.996094 "/>
</g>
</svg>
